<?xml version="1.0"?>
<svg xmlns="http://www.w3.org/2000/svg" height="512px" viewBox="0 -48 480 480" width="512px"><path d="m32 304h176v-160h-176zm16-144h144v128h-144zm0 0" fill="#FFFFFF"/><path d="m32 320h16v16h-16zm0 0" fill="#FFFFFF"/><path d="m64 320h16v16h-16zm0 0" fill="#FFFFFF"/><path d="m192 320h16v16h-16zm0 0" fill="#FFFFFF"/><path d="m224 112h-224v272h240v-112h240v-272h-256zm0 256h-208v-240h208zm16-352h224v240h-224zm0 0" fill="#FFFFFF"/><path d="m448 32h-192v160h192zm-16 144h-160v-128h160zm0 0" fill="#FFFFFF"/><path d="m256 208h16v16h-16zm0 0" fill="#FFFFFF"/><path d="m432 208h16v16h-16zm0 0" fill="#FFFFFF"/><path d="m120 181.550781c-14.332031-8.613281-32.585938-6.980469-45.160156 4.042969-6.890625 6.085938-10.835938 14.839844-10.835938 24.035156 0 9.195313 3.945313 17.945313 10.835938 24.035156l39.769531 36.246094c3.054687 2.789063 7.726563 2.789063 10.78125 0l39.769531-36.246094c6.890625-6.089843 10.835938-14.839843 10.835938-24.035156 0-9.195312-3.945313-17.949218-10.835938-24.035156-12.574218-11.019531-30.828125-12.652344-45.160156-4.042969zm34.398438 40.28125-34.398438 31.335938-34.398438-31.335938c-3.570312-3.050781-5.625-7.507812-5.625-12.203125 0-4.695312 2.054688-9.15625 5.625-12.203125 8.285157-7.285156 20.695313-7.285156 28.984376 0 3.050781 2.785157 7.726562 2.785157 10.78125 0 8.289062-7.28125 20.695312-7.28125 28.984374 0 3.570313 3.046875 5.621094 7.507813 5.621094 12.203125 0 4.695313-2.050781 9.152344-5.621094 12.203125zm0 0" fill="#FFFFFF"/><path d="m346.609375 157.910156c3.054687 2.789063 7.726563 2.789063 10.78125 0l39.769531-36.246094c6.890625-6.089843 10.835938-14.839843 10.835938-24.035156 0-9.195312-3.945313-17.949218-10.835938-24.035156-12.578125-11.015625-30.828125-12.648438-45.160156-4.042969-14.332031-8.609375-32.585938-6.976562-45.160156 4.042969-6.890625 6.085938-10.835938 14.839844-10.835938 24.035156 0 9.195313 3.945313 17.945313 10.835938 24.035156zm-29.007813-72.484375c8.285157-7.285156 20.695313-7.285156 28.984376 0 3.050781 2.785157 7.726562 2.785157 10.78125 0 8.289062-7.28125 20.695312-7.28125 28.984374 0 3.570313 3.046875 5.621094 7.507813 5.621094 12.203125 0 4.695313-2.050781 9.152344-5.621094 12.203125l-34.351562 31.335938-34.398438-31.335938c-3.570312-3.050781-5.625-7.507812-5.625-12.203125 0-4.695312 2.054688-9.15625 5.625-12.203125zm0 0" fill="#FFFFFF"/><path d="m344 208h72v16h-72zm0 0" fill="#FFFFFF"/></svg>
