<?xml version="1.0"?>
<svg xmlns="http://www.w3.org/2000/svg" height="512px" viewBox="-46 0 512 512" width="512px"><path d="m290 240c-5.519531 0-10 4.480469-10 10s4.480469 10 10 10 10-4.480469 10-10-4.480469-10-10-10zm0 0" fill="#FFFFFF"/><path d="m209.800781 140c.0625.003906.121094 0 .183594 0 38.488281 0 69.859375 31.335938 69.964844 69.929688.015625 5.511718 4.488281 9.972656 10 9.972656h.027343c5.523438-.015625 9.988282-4.503906 9.972657-10.027344-.132813-49.605469-40.46875-89.875-89.964844-89.875-.066406 0-.140625 0-.207031 0-5.523438.011719-9.992188 4.5-9.976563 10.023438.011719 5.515624 4.484375 9.976562 10 9.976562zm0 0" fill="#FFFFFF"/><path d="m80 210v23.800781c0 54.578125-.714844 115.433594-34.71875 158.199219h-15.28125c-16.574219 0-30 13.425781-30 30 0 16.542969 13.457031 30 30 30h130v10c0 27.621094 22.375 50 50 50 27.570312 0 50-22.429688 50-50v-10h130c16.574219 0 30-13.425781 30-30 0-16.542969-13.457031-30-30-30h-15.28125c-34.019531-42.78125-34.71875-103.621094-34.71875-158.199219v-23.800781c0-60.8125-41.238281-109.988281-94.289062-125.054688 8.832031-9.019531 14.289062-21.355468 14.289062-34.945312 0-27.570312-22.429688-50-50-50s-50 22.429688-50 50c0 13.605469 5.46875 25.953125 14.320312 34.980469-54.390624 15.542969-94.320312 65.707031-94.320312 125.019531zm160 252c0 16.542969-13.457031 30-30 30-16.566406 0-30-13.429688-30-30v-10h60zm160-40c0 5.519531-4.476562 10-10 10h-360c-5.515625 0-10-4.484375-10-10 0-5.519531 4.476562-10 10-10h360c5.515625 0 10 4.484375 10 10zm-330.214844-30c8.539063-13.453125 15.109375-28.679688 19.863282-46h240.703124c4.753907 17.320312 11.324219 32.546875 19.863282 46zm110.214844-342c0-16.542969 13.457031-30 30-30s30 13.457031 30 30-13.457031 30-30 30-30-13.457031-30-30zm30 50c60.78125 0 110 49.183594 110 110v23.800781c0 31.863281.492188 62.953125 5.8125 92.199219h-231.625c5.320312-29.246094 5.8125-60.335938 5.8125-92.199219v-23.800781c0-60.652344 49.347656-110 110-110zm0 0" fill="#FFFFFF"/></svg>
